<?xml version="1.0" encoding="UTF-8"?>
<svg enable-background="new 0 0 720 720" version="1.1" viewBox="0 0 720 720" xml:space="preserve" xmlns="http://www.w3.org/2000/svg">
<style type="text/css">
	.st0{fill:#0080BB;}
	.st1{fill:#FFFFFF;}
</style>
	<rect class="st0" x="9" y="9" width="702" height="702"/>
	<path class="st1" d="m71.7 160.5v-88.8h36.7c7.9 0 14.6 0.8 20.3 2.5s10.3 4.3 13.9 7.8 6.3 8.1 8 13.7 2.6 12.2 2.6 19.9c0 8.1-0.9 14.9-2.8 20.6s-4.6 10.3-8.4 13.9c-3.7 3.5-8.4 6.1-13.9 7.8-5.6 1.7-12.1 2.5-19.5 2.5h-36.9zm18.8-15h17.7c4.4 0 8.2-0.4 11.4-1.2s5.8-2.3 7.9-4.5 3.6-5.2 4.6-9.1 1.5-8.9 1.5-15.1c0-5.8-0.4-10.5-1.4-14.2-0.9-3.7-2.4-6.6-4.4-8.8s-4.7-3.7-7.9-4.6-7.1-1.3-11.7-1.3h-17.7v58.8z"/>
	<rect class="st1" x="170.4" y="71.7" width="18.7" height="88.8"/>
	<polygon class="st1" points="210 160.5 210 71.7 230.9 71.7 257 128.3 260.9 137.2 261.3 137.2 265.1 128.3 291.4 71.7 312.3 71.7 312.3 160.5 295.1 160.5 295.1 109.2 295.3 99.6 295 99.5 291 108.5 267.1 160.5 254.4 160.5 230.6 108.5 226.7 99.5 226.5 99.6 226.6 109.2 226.6 160.5"/>
	<path class="st1" d="m325 160.5l35.9-88.8h22.4l36.5 88.8h-21l-6.7-19.1h-40.7l-6.8 19.1h-19.6zm31.3-32.9h31l-12.3-34.7-2.9-9.3h-0.4l-3.1 9.3-12.3 34.7z"/>
	<rect class="st1" x="529.2" y="71.7" width="18.7" height="88.8"/>
	<polygon class="st1" points="568.9 160.5 568.9 71.7 585 71.7 625.6 123.5 631.7 131.5 632 131.4 631.7 121.9 631.7 71.7 648.3 71.7 648.3 160.5 635.1 160.5 591.7 106.4 585.6 98.4 585.3 98.5 585.4 108.1 585.4 160.5"/>
	<polygon class="st1" points="451.3 160.5 451.3 123.1 463.7 123.1 491.3 160.5 513.6 160.5 480.9 116.1 513.6 71.7 491.3 71.7 463.7 109.1 451.3 109.1 451.3 71.7 432.6 71.7 432.6 160.5 438.6 160.5"/>
	<path class="st1" d="m71.7 160.5v-88.8h36.7c7.9 0 14.6 0.8 20.3 2.5s10.3 4.3 13.9 7.8 6.3 8.1 8 13.7 2.6 12.2 2.6 19.9c0 8.1-0.9 14.9-2.8 20.6s-4.6 10.3-8.4 13.9c-3.7 3.5-8.4 6.1-13.9 7.8-5.6 1.7-12.1 2.5-19.5 2.5h-36.9zm18.8-15h17.7c4.4 0 8.2-0.4 11.4-1.2s5.8-2.3 7.9-4.5 3.6-5.2 4.6-9.1 1.5-8.9 1.5-15.1c0-5.8-0.4-10.5-1.4-14.2-0.9-3.7-2.4-6.6-4.4-8.8s-4.7-3.7-7.9-4.6-7.1-1.3-11.7-1.3h-17.7v58.8z"/>
	<rect class="st1" x="170.4" y="71.7" width="18.7" height="88.8"/>
	<polygon class="st1" points="210 160.5 210 71.7 230.9 71.7 257 128.3 260.9 137.2 261.3 137.2 265.1 128.3 291.4 71.7 312.3 71.7 312.3 160.5 295.1 160.5 295.1 109.2 295.3 99.6 295 99.5 291 108.5 267.1 160.5 254.4 160.5 230.6 108.5 226.7 99.5 226.5 99.6 226.6 109.2 226.6 160.5"/>
	<path class="st1" d="m325 160.5l35.9-88.8h22.4l36.5 88.8h-21l-6.7-19.1h-40.7l-6.8 19.1h-19.6zm31.3-32.9h31l-12.3-34.7-2.9-9.3h-0.4l-3.1 9.3-12.3 34.7z"/>
	<rect class="st1" x="529.2" y="71.7" width="18.7" height="88.8"/>
	<polygon class="st1" points="568.9 160.5 568.9 71.7 585 71.7 625.6 123.5 631.7 131.5 632 131.4 631.7 121.9 631.7 71.7 648.3 71.7 648.3 160.5 635.1 160.5 591.7 106.4 585.6 98.4 585.3 98.5 585.4 108.1 585.4 160.5"/>
	<polygon class="st1" points="451.3 160.5 451.3 123.1 463.7 123.1 491.3 160.5 513.6 160.5 480.9 116.1 513.6 71.7 491.3 71.7 463.7 109.1 451.3 109.1 451.3 71.7 432.6 71.7 432.6 160.5 438.6 160.5"/>
</svg>
